<svg width="55" height="55" viewBox="0 0 55 55" fill="none" xmlns="http://www.w3.org/2000/svg">
<path d="M50 27.5C50 39.9264 39.9264 50 27.5 50C15.0736 50 5 39.9264 5 27.5C5 15.0736 15.0736 5 27.5 5C39.9264 5 50 15.0736 50 27.5Z" fill="#C4C4C4"/>
<path d="M27.1474 4.23077C14.4974 4.23077 4.23077 14.4974 4.23077 27.1474C4.23077 39.7974 14.4974 50.0641 27.1474 50.0641C39.7974 50.0641 50.0641 39.7974 50.0641 27.1474C50.0641 14.4974 39.7974 4.23077 27.1474 4.23077ZM27.1474 11.1058C30.9516 11.1058 34.0224 14.1766 34.0224 17.9808C34.0224 21.7849 30.9516 24.8558 27.1474 24.8558C23.3433 24.8558 20.2724 21.7849 20.2724 17.9808C20.2724 14.1766 23.3433 11.1058 27.1474 11.1058ZM27.1474 43.6474C21.4183 43.6474 16.3537 40.7141 13.3974 36.2683C13.4662 31.7079 22.5641 29.2099 27.1474 29.2099C31.7079 29.2099 40.8287 31.7079 40.8974 36.2683C37.9412 40.7141 32.8766 43.6474 27.1474 43.6474Z" fill="#EEEEEE"/>
</svg>
