<svg width="509" height="319" viewBox="0 0 509 319" fill="none" xmlns="http://www.w3.org/2000/svg">
<g opacity="0.8" filter="url(#filter0_d_25_228)">
<path d="M100 80.1625C100 70.6839 107.684 63 117.162 63H582.838C592.316 63 600 70.6839 600 80.1625V164.831C600 174.309 592.316 181.993 582.838 181.993H117.162C107.684 181.993 100 174.309 100 164.831V80.1625Z" fill="white"/>
<path d="M437.529 140.803C437.529 132.904 443.932 126.501 451.831 126.501H562.243C570.141 126.501 576.545 132.904 576.545 140.803C576.545 148.702 570.141 155.105 562.243 155.105H451.831C443.932 155.105 437.529 148.702 437.529 140.803Z" fill="url(#paint0_linear_25_228)"/>
<path d="M466.052 141.852H467.309C467.269 142.332 467.135 142.759 466.907 143.135C466.679 143.507 466.359 143.8 465.947 144.014C465.534 144.229 465.033 144.336 464.443 144.336C463.991 144.336 463.584 144.256 463.221 144.095C462.859 143.931 462.549 143.699 462.291 143.401C462.033 143.099 461.835 142.736 461.698 142.31C461.564 141.884 461.497 141.408 461.497 140.882V140.274C461.497 139.747 461.566 139.271 461.703 138.846C461.844 138.42 462.045 138.056 462.306 137.755C462.568 137.449 462.881 137.217 463.247 137.056C463.615 136.895 464.029 136.814 464.489 136.814C465.072 136.814 465.565 136.922 465.967 137.136C466.369 137.351 466.681 137.647 466.902 138.026C467.127 138.405 467.264 138.839 467.314 139.328H466.057C466.024 139.013 465.95 138.743 465.836 138.519C465.725 138.294 465.561 138.123 465.343 138.006C465.125 137.885 464.841 137.825 464.489 137.825C464.2 137.825 463.949 137.879 463.734 137.986C463.52 138.093 463.34 138.251 463.196 138.458C463.052 138.666 462.943 138.923 462.87 139.228C462.799 139.529 462.764 139.875 462.764 140.264V140.882C462.764 141.251 462.796 141.586 462.859 141.888C462.926 142.186 463.027 142.442 463.161 142.657C463.299 142.871 463.473 143.037 463.684 143.155C463.895 143.272 464.148 143.331 464.443 143.331C464.802 143.331 465.092 143.274 465.313 143.16C465.538 143.046 465.707 142.88 465.821 142.662C465.938 142.441 466.015 142.171 466.052 141.852Z" fill="white"/>
<path d="M468.456 136.915H471.045C471.602 136.915 472.076 136.999 472.468 137.166C472.86 137.334 473.16 137.582 473.368 137.91C473.579 138.236 473.685 138.638 473.685 139.117C473.685 139.483 473.618 139.804 473.484 140.083C473.35 140.361 473.16 140.595 472.916 140.786C472.671 140.974 472.379 141.12 472.041 141.224L471.659 141.41H469.331L469.321 140.409H471.065C471.367 140.409 471.618 140.356 471.819 140.248C472.021 140.141 472.171 139.995 472.272 139.811C472.376 139.623 472.428 139.412 472.428 139.177C472.428 138.923 472.378 138.701 472.277 138.514C472.18 138.323 472.029 138.177 471.825 138.076C471.62 137.972 471.36 137.92 471.045 137.92H469.718V144.236H468.456V136.915ZM472.634 144.236L470.914 140.947L472.237 140.942L473.982 144.17V144.236H472.634Z" fill="white"/>
<path d="M479.734 143.235V144.236H475.847V143.235H479.734ZM476.204 136.915V144.236H474.942V136.915H476.204ZM479.226 139.972V140.957H475.847V139.972H479.226ZM479.709 136.915V137.92H475.847V136.915H479.709Z" fill="white"/>
<path d="M483.615 137.89L481.428 144.236H480.106L482.861 136.915H483.706L483.615 137.89ZM485.446 144.236L483.253 137.89L483.158 136.915H484.008L486.773 144.236H485.446ZM485.34 141.521V142.521H481.358V141.521H485.34Z" fill="white"/>
<path d="M489.971 136.915V144.236H488.719V136.915H489.971ZM492.269 136.915V137.92H486.441V136.915H492.269Z" fill="white"/>
<path d="M498.026 143.235V144.236H494.139V143.235H498.026ZM494.496 136.915V144.236H493.234V136.915H494.496ZM497.518 139.972V140.957H494.139V139.972H497.518ZM498.001 136.915V137.92H494.139V136.915H498.001Z" fill="white"/>
<path d="M505.945 141.852H507.202C507.162 142.332 507.028 142.759 506.8 143.135C506.572 143.507 506.252 143.8 505.839 144.014C505.427 144.229 504.926 144.336 504.336 144.336C503.883 144.336 503.476 144.256 503.114 144.095C502.752 143.931 502.442 143.699 502.184 143.401C501.926 143.099 501.728 142.736 501.591 142.31C501.457 141.884 501.39 141.408 501.39 140.882V140.274C501.39 139.747 501.458 139.271 501.596 138.846C501.736 138.42 501.938 138.056 502.199 137.755C502.461 137.449 502.774 137.217 503.139 137.056C503.508 136.895 503.922 136.814 504.381 136.814C504.965 136.814 505.457 136.922 505.86 137.136C506.262 137.351 506.574 137.647 506.795 138.026C507.019 138.405 507.157 138.839 507.207 139.328H505.95C505.916 139.013 505.843 138.743 505.729 138.519C505.618 138.294 505.454 138.123 505.236 138.006C505.018 137.885 504.733 137.825 504.381 137.825C504.093 137.825 503.842 137.879 503.627 137.986C503.413 138.093 503.233 138.251 503.089 138.458C502.945 138.666 502.836 138.923 502.762 139.228C502.692 139.529 502.657 139.875 502.657 140.264V140.882C502.657 141.251 502.688 141.586 502.752 141.888C502.819 142.186 502.92 142.442 503.054 142.657C503.191 142.871 503.366 143.037 503.577 143.155C503.788 143.272 504.041 143.331 504.336 143.331C504.695 143.331 504.985 143.274 505.206 143.16C505.43 143.046 505.6 142.88 505.714 142.662C505.831 142.441 505.908 142.171 505.945 141.852Z" fill="white"/>
<path d="M514.186 140.374V140.776C514.186 141.329 514.114 141.826 513.97 142.265C513.826 142.704 513.619 143.078 513.351 143.386C513.087 143.694 512.768 143.931 512.396 144.095C512.024 144.256 511.612 144.336 511.159 144.336C510.71 144.336 510.299 144.256 509.927 144.095C509.558 143.931 509.238 143.694 508.967 143.386C508.695 143.078 508.484 142.704 508.333 142.265C508.186 141.826 508.112 141.329 508.112 140.776V140.374C508.112 139.821 508.186 139.327 508.333 138.891C508.481 138.452 508.689 138.078 508.957 137.77C509.228 137.458 509.548 137.222 509.917 137.061C510.289 136.896 510.7 136.814 511.149 136.814C511.602 136.814 512.014 136.896 512.386 137.061C512.758 137.222 513.078 137.458 513.346 137.77C513.614 138.078 513.821 138.452 513.965 138.891C514.112 139.327 514.186 139.821 514.186 140.374ZM512.924 140.776V140.364C512.924 139.955 512.884 139.595 512.803 139.283C512.726 138.968 512.611 138.705 512.456 138.494C512.305 138.279 512.119 138.118 511.898 138.011C511.677 137.9 511.427 137.845 511.149 137.845C510.871 137.845 510.623 137.9 510.405 138.011C510.187 138.118 510.001 138.279 509.847 138.494C509.696 138.705 509.58 138.968 509.5 139.283C509.419 139.595 509.379 139.955 509.379 140.364V140.776C509.379 141.185 509.419 141.547 509.5 141.862C509.58 142.178 509.698 142.444 509.852 142.662C510.009 142.876 510.197 143.039 510.415 143.15C510.633 143.257 510.881 143.311 511.159 143.311C511.441 143.311 511.69 143.257 511.908 143.15C512.126 143.039 512.311 142.876 512.461 142.662C512.612 142.444 512.726 142.178 512.803 141.862C512.884 141.547 512.924 141.185 512.924 140.776Z" fill="white"/>
<path d="M521.255 136.915V144.236H519.993L516.71 138.991V144.236H515.448V136.915H516.71L520.003 142.169V136.915H521.255Z" fill="white"/>
<path d="M525.62 136.915V144.236H524.368V136.915H525.62ZM527.918 136.915V137.92H522.09V136.915H527.918Z" fill="white"/>
<path d="M528.883 136.915H531.472C532.029 136.915 532.503 136.999 532.895 137.166C533.288 137.334 533.588 137.582 533.795 137.91C534.007 138.236 534.112 138.638 534.112 139.117C534.112 139.483 534.045 139.804 533.911 140.083C533.777 140.361 533.588 140.595 533.343 140.786C533.098 140.974 532.807 141.12 532.468 141.224L532.086 141.41H529.758L529.748 140.409H531.493C531.794 140.409 532.046 140.356 532.247 140.248C532.448 140.141 532.599 139.995 532.699 139.811C532.803 139.623 532.855 139.412 532.855 139.177C532.855 138.923 532.805 138.701 532.704 138.514C532.607 138.323 532.456 138.177 532.252 138.076C532.047 137.972 531.788 137.92 531.472 137.92H530.145V144.236H528.883V136.915ZM533.061 144.236L531.342 140.947L532.664 140.942L534.409 144.17V144.236H533.061Z" fill="white"/>
<path d="M538.22 137.89L536.033 144.236H534.711L537.466 136.915H538.311L538.22 137.89ZM540.05 144.236L537.858 137.89L537.763 136.915H538.612L541.378 144.236H540.05ZM539.945 141.521V142.521H535.963V141.521H539.945Z" fill="white"/>
<path d="M546.441 141.852H547.698C547.658 142.332 547.524 142.759 547.296 143.135C547.068 143.507 546.748 143.8 546.335 144.014C545.923 144.229 545.422 144.336 544.832 144.336C544.38 144.336 543.972 144.256 543.61 144.095C543.248 143.931 542.938 143.699 542.68 143.401C542.422 143.099 542.224 142.736 542.087 142.31C541.953 141.884 541.886 141.408 541.886 140.882V140.274C541.886 139.747 541.954 139.271 542.092 138.846C542.233 138.42 542.434 138.056 542.695 137.755C542.957 137.449 543.27 137.217 543.635 137.056C544.004 136.895 544.418 136.814 544.877 136.814C545.461 136.814 545.953 136.922 546.356 137.136C546.758 137.351 547.07 137.647 547.291 138.026C547.515 138.405 547.653 138.839 547.703 139.328H546.446C546.413 139.013 546.339 138.743 546.225 138.519C546.114 138.294 545.95 138.123 545.732 138.006C545.514 137.885 545.229 137.825 544.877 137.825C544.589 137.825 544.338 137.879 544.123 137.986C543.909 138.093 543.729 138.251 543.585 138.458C543.441 138.666 543.332 138.923 543.258 139.228C543.188 139.529 543.153 139.875 543.153 140.264V140.882C543.153 141.251 543.185 141.586 543.248 141.888C543.315 142.186 543.416 142.442 543.55 142.657C543.687 142.871 543.862 143.037 544.073 143.155C544.284 143.272 544.537 143.331 544.832 143.331C545.191 143.331 545.481 143.274 545.702 143.16C545.927 143.046 546.096 142.88 546.21 142.662C546.327 142.441 546.404 142.171 546.441 141.852Z" fill="white"/>
<path d="M551.705 136.915V144.236H550.453V136.915H551.705ZM554.003 136.915V137.92H548.176V136.915H554.003Z" fill="white"/>
<path d="M158.924 101.616C158.924 94.5066 164.687 88.7437 171.796 88.7437H563.673C570.782 88.7437 576.545 94.5066 576.545 101.616C576.545 108.724 570.782 114.487 563.673 114.487H171.796C164.687 114.487 158.924 108.724 158.924 101.616Z" fill="#F3F3F3"/>
<path d="M177.809 103.507L179.429 97.1998H180.278L180.183 98.8255L178.451 105.334H177.569L177.809 103.507ZM176.596 97.1998L177.909 103.457L178.027 105.334H177.088L175.205 97.1998H176.596ZM182.116 103.44L183.412 97.1998H184.809L182.926 105.334H181.988L182.116 103.44ZM180.608 97.1998L182.211 103.524L182.446 105.334H181.563L179.859 98.8255L179.77 97.1998H180.608Z" fill="#C4C4C4"/>
<path d="M187.044 96.7529V105.334H185.703V96.7529H187.044ZM186.809 102.088L186.373 102.083C186.377 101.665 186.435 101.28 186.546 100.926C186.662 100.572 186.822 100.265 187.027 100.004C187.235 99.7399 187.485 99.5369 187.776 99.3954C188.066 99.2501 188.388 99.1775 188.742 99.1775C189.04 99.1775 189.308 99.2185 189.547 99.3004C189.789 99.3824 189.997 99.5146 190.172 99.6971C190.347 99.8759 190.48 100.11 190.569 100.401C190.662 100.688 190.709 101.038 190.709 101.451V105.334H189.357V101.44C189.357 101.15 189.314 100.919 189.228 100.747C189.146 100.576 189.025 100.453 188.865 100.379C188.705 100.3 188.509 100.261 188.278 100.261C188.036 100.261 187.822 100.31 187.636 100.407C187.453 100.503 187.301 100.636 187.178 100.803C187.055 100.971 186.962 101.165 186.898 101.384C186.839 101.604 186.809 101.839 186.809 102.088Z" fill="#C4C4C4"/>
<path d="M195.48 104.122V101.239C195.48 101.023 195.441 100.837 195.362 100.68C195.284 100.524 195.165 100.403 195.005 100.317C194.848 100.232 194.651 100.189 194.413 100.189C194.193 100.189 194.003 100.226 193.843 100.3C193.683 100.375 193.558 100.475 193.468 100.602C193.379 100.729 193.334 100.872 193.334 101.032H191.994C191.994 100.794 192.051 100.563 192.167 100.34C192.282 100.116 192.45 99.9168 192.67 99.7418C192.889 99.5667 193.152 99.4289 193.457 99.3284C193.763 99.2278 194.105 99.1775 194.485 99.1775C194.94 99.1775 195.342 99.2539 195.692 99.4066C196.046 99.5593 196.323 99.7902 196.524 100.099C196.729 100.405 196.832 100.788 196.832 101.25V103.937C196.832 104.213 196.85 104.461 196.888 104.68C196.928 104.896 196.986 105.085 197.061 105.245V105.334H195.681C195.617 105.189 195.567 105.004 195.53 104.781C195.496 104.554 195.48 104.334 195.48 104.122ZM195.675 101.658L195.686 102.49H194.72C194.47 102.49 194.251 102.515 194.061 102.563C193.871 102.608 193.712 102.675 193.586 102.764C193.459 102.854 193.364 102.962 193.301 103.088C193.238 103.215 193.206 103.358 193.206 103.518C193.206 103.679 193.243 103.826 193.318 103.96C193.392 104.09 193.5 104.193 193.642 104.267C193.787 104.342 193.962 104.379 194.167 104.379C194.442 104.379 194.683 104.323 194.887 104.211C195.096 104.096 195.26 103.956 195.379 103.792C195.498 103.625 195.562 103.466 195.569 103.317L196.005 103.915C195.96 104.068 195.884 104.232 195.776 104.407C195.668 104.582 195.526 104.749 195.351 104.91C195.18 105.066 194.973 105.194 194.731 105.295C194.493 105.396 194.217 105.446 193.904 105.446C193.509 105.446 193.157 105.368 192.848 105.211C192.539 105.051 192.297 104.837 192.122 104.569C191.947 104.297 191.859 103.99 191.859 103.647C191.859 103.327 191.919 103.044 192.038 102.798C192.161 102.548 192.34 102.34 192.575 102.172C192.813 102.004 193.103 101.878 193.446 101.792C193.789 101.703 194.18 101.658 194.619 101.658H195.675Z" fill="#C4C4C4"/>
<path d="M201.011 99.2892V100.273H197.603V99.2892H201.011ZM198.586 97.8088H199.932V103.664C199.932 103.85 199.958 103.993 200.011 104.094C200.066 104.191 200.143 104.256 200.24 104.289C200.336 104.323 200.45 104.34 200.58 104.34C200.673 104.34 200.763 104.334 200.849 104.323C200.934 104.312 201.003 104.301 201.055 104.289L201.061 105.317C200.949 105.351 200.819 105.381 200.67 105.407C200.524 105.433 200.357 105.446 200.167 105.446C199.858 105.446 199.584 105.392 199.346 105.284C199.107 105.172 198.921 104.991 198.787 104.742C198.653 104.492 198.586 104.161 198.586 103.747V97.8088Z" fill="#C4C4C4"/>
<path d="M208.586 104.083V96.7529H209.938V105.334H208.715L208.586 104.083ZM204.653 102.379V102.261C204.653 101.803 204.707 101.386 204.815 101.01C204.923 100.63 205.08 100.304 205.284 100.032C205.489 99.7567 205.739 99.5462 206.033 99.401C206.327 99.252 206.659 99.1775 207.027 99.1775C207.392 99.1775 207.713 99.2483 207.988 99.3898C208.264 99.5313 208.499 99.7343 208.692 99.9988C208.886 100.259 209.041 100.572 209.156 100.937C209.271 101.299 209.353 101.701 209.402 102.144V102.518C209.353 102.95 209.271 103.345 209.156 103.703C209.041 104.06 208.886 104.369 208.692 104.63C208.499 104.891 208.262 105.092 207.983 105.234C207.707 105.375 207.385 105.446 207.016 105.446C206.651 105.446 206.322 105.369 206.027 105.217C205.737 105.064 205.489 104.85 205.284 104.574C205.08 104.299 204.923 103.975 204.815 103.602C204.707 103.226 204.653 102.818 204.653 102.379ZM205.999 102.261V102.379C205.999 102.654 206.024 102.911 206.072 103.15C206.124 103.388 206.204 103.598 206.312 103.781C206.42 103.96 206.56 104.101 206.731 104.206C206.906 104.306 207.115 104.356 207.357 104.356C207.662 104.356 207.914 104.289 208.111 104.155C208.309 104.021 208.463 103.841 208.575 103.613C208.69 103.382 208.769 103.125 208.81 102.842V101.831C208.787 101.611 208.741 101.407 208.67 101.217C208.603 101.027 208.512 100.861 208.396 100.719C208.281 100.574 208.137 100.462 207.966 100.384C207.798 100.302 207.599 100.261 207.368 100.261C207.122 100.261 206.914 100.313 206.743 100.418C206.571 100.522 206.43 100.665 206.318 100.848C206.21 101.03 206.13 101.243 206.078 101.485C206.026 101.727 205.999 101.986 205.999 102.261Z" fill="#C4C4C4"/>
<path d="M211.089 102.379V102.25C211.089 101.814 211.152 101.41 211.279 101.038C211.406 100.662 211.588 100.336 211.826 100.06C212.069 99.7809 212.363 99.5649 212.709 99.4122C213.059 99.2557 213.454 99.1775 213.894 99.1775C214.337 99.1775 214.732 99.2557 215.078 99.4122C215.428 99.5649 215.724 99.7809 215.966 100.06C216.208 100.336 216.393 100.662 216.519 101.038C216.646 101.41 216.709 101.814 216.709 102.25V102.379C216.709 102.814 216.646 103.219 216.519 103.591C216.393 103.963 216.208 104.289 215.966 104.569C215.724 104.844 215.43 105.06 215.084 105.217C214.737 105.369 214.344 105.446 213.905 105.446C213.462 105.446 213.065 105.369 212.715 105.217C212.368 105.06 212.074 104.844 211.832 104.569C211.59 104.289 211.406 103.963 211.279 103.591C211.152 103.219 211.089 102.814 211.089 102.379ZM212.435 102.25V102.379C212.435 102.651 212.463 102.908 212.519 103.15C212.575 103.392 212.663 103.604 212.782 103.787C212.901 103.969 213.054 104.112 213.24 104.217C213.426 104.321 213.648 104.373 213.905 104.373C214.154 104.373 214.37 104.321 214.553 104.217C214.739 104.112 214.892 103.969 215.011 103.787C215.13 103.604 215.218 103.392 215.273 103.15C215.333 102.908 215.363 102.651 215.363 102.379V102.25C215.363 101.982 215.333 101.729 215.273 101.49C215.218 101.248 215.128 101.034 215.005 100.848C214.886 100.662 214.733 100.516 214.547 100.412C214.365 100.304 214.147 100.25 213.894 100.25C213.64 100.25 213.421 100.304 213.234 100.412C213.052 100.516 212.901 100.662 212.782 100.848C212.663 101.034 212.575 101.248 212.519 101.49C212.463 101.729 212.435 101.982 212.435 102.25Z" fill="#C4C4C4"/>
<path d="M222.441 104.675L224.084 99.2892H225.525L223.101 106.256C223.045 106.405 222.972 106.567 222.883 106.742C222.793 106.917 222.676 107.083 222.531 107.239C222.389 107.399 222.212 107.528 222 107.625C221.788 107.725 221.531 107.776 221.229 107.776C221.11 107.776 220.994 107.764 220.883 107.742C220.775 107.723 220.672 107.703 220.575 107.681L220.57 106.653C220.607 106.656 220.652 106.66 220.704 106.664C220.76 106.667 220.804 106.669 220.838 106.669C221.061 106.669 221.248 106.641 221.397 106.586C221.546 106.533 221.667 106.448 221.76 106.329C221.857 106.209 221.938 106.049 222.006 105.848L222.441 104.675ZM221.514 99.2892L222.95 103.815L223.19 105.234L222.257 105.474L220.061 99.2892H221.514Z" fill="#C4C4C4"/>
<path d="M225.95 102.379V102.25C225.95 101.814 226.013 101.41 226.14 101.038C226.266 100.662 226.449 100.336 226.687 100.06C226.929 99.7809 227.224 99.5649 227.57 99.4122C227.92 99.2557 228.315 99.1775 228.754 99.1775C229.198 99.1775 229.592 99.2557 229.939 99.4122C230.289 99.5649 230.585 99.7809 230.827 100.06C231.069 100.336 231.253 100.662 231.38 101.038C231.507 101.41 231.57 101.814 231.57 102.25V102.379C231.57 102.814 231.507 103.219 231.38 103.591C231.253 103.963 231.069 104.289 230.827 104.569C230.585 104.844 230.291 105.06 229.944 105.217C229.598 105.369 229.205 105.446 228.765 105.446C228.322 105.446 227.926 105.369 227.575 105.217C227.229 105.06 226.935 104.844 226.693 104.569C226.451 104.289 226.266 103.963 226.14 103.591C226.013 103.219 225.95 102.814 225.95 102.379ZM227.296 102.25V102.379C227.296 102.651 227.324 102.908 227.38 103.15C227.436 103.392 227.523 103.604 227.643 103.787C227.762 103.969 227.914 104.112 228.101 104.217C228.287 104.321 228.508 104.373 228.765 104.373C229.015 104.373 229.231 104.321 229.414 104.217C229.6 104.112 229.752 103.969 229.872 103.787C229.991 103.604 230.078 103.392 230.134 103.15C230.194 102.908 230.224 102.651 230.224 102.379V102.25C230.224 101.982 230.194 101.729 230.134 101.49C230.078 101.248 229.989 101.034 229.866 100.848C229.747 100.662 229.594 100.516 229.408 100.412C229.225 100.304 229.008 100.25 228.754 100.25C228.501 100.25 228.281 100.304 228.095 100.412C227.913 100.516 227.762 100.662 227.643 100.848C227.523 101.034 227.436 101.248 227.38 101.49C227.324 101.729 227.296 101.982 227.296 102.25Z" fill="#C4C4C4"/>
<path d="M236.336 103.909V99.2892H237.688V105.334H236.414L236.336 103.909ZM236.525 102.652L236.978 102.641C236.978 103.047 236.933 103.422 236.844 103.764C236.755 104.103 236.617 104.399 236.43 104.653C236.244 104.902 236.006 105.098 235.715 105.239C235.425 105.377 235.077 105.446 234.671 105.446C234.376 105.446 234.106 105.403 233.861 105.317C233.615 105.232 233.402 105.099 233.224 104.921C233.049 104.742 232.913 104.509 232.816 104.222C232.719 103.936 232.671 103.593 232.671 103.194V99.2892H234.017V103.206C234.017 103.425 234.043 103.61 234.095 103.759C234.147 103.904 234.218 104.021 234.308 104.111C234.397 104.2 234.501 104.263 234.62 104.301C234.74 104.338 234.866 104.356 235 104.356C235.384 104.356 235.686 104.282 235.905 104.133C236.129 103.98 236.287 103.775 236.38 103.518C236.477 103.261 236.525 102.973 236.525 102.652Z" fill="#C4C4C4"/>
<path d="M243.559 103.993L244.956 99.2892H245.816L245.582 100.697L244.174 105.334H243.403L243.559 103.993ZM242.738 99.2892L243.827 104.016L243.917 105.334H243.056L241.419 99.2892H242.738ZM247.124 103.96L248.179 99.2892H249.492L247.861 105.334H247.001L247.124 103.96ZM245.961 99.2892L247.341 103.937L247.515 105.334H246.744L245.319 100.692L245.084 99.2892H245.961Z" fill="#C4C4C4"/>
<path d="M253.816 104.122V101.239C253.816 101.023 253.777 100.837 253.699 100.68C253.621 100.524 253.502 100.403 253.342 100.317C253.185 100.232 252.988 100.189 252.749 100.189C252.53 100.189 252.34 100.226 252.18 100.3C252.019 100.375 251.895 100.475 251.805 100.602C251.716 100.729 251.671 100.872 251.671 101.032H250.33C250.33 100.794 250.388 100.563 250.503 100.34C250.619 100.116 250.787 99.9168 251.006 99.7418C251.226 99.5667 251.489 99.4289 251.794 99.3284C252.099 99.2278 252.442 99.1775 252.822 99.1775C253.276 99.1775 253.679 99.2539 254.029 99.4066C254.383 99.5593 254.66 99.7902 254.861 100.099C255.066 100.405 255.168 100.788 255.168 101.25V103.937C255.168 104.213 255.187 104.461 255.224 104.68C255.265 104.896 255.323 105.085 255.397 105.245V105.334H254.018C253.954 105.189 253.904 105.004 253.867 104.781C253.833 104.554 253.816 104.334 253.816 104.122ZM254.012 101.658L254.023 102.49H253.057C252.807 102.49 252.587 102.515 252.397 102.563C252.207 102.608 252.049 102.675 251.923 102.764C251.796 102.854 251.701 102.962 251.638 103.088C251.574 103.215 251.543 103.358 251.543 103.518C251.543 103.679 251.58 103.826 251.654 103.96C251.729 104.09 251.837 104.193 251.978 104.267C252.124 104.342 252.299 104.379 252.504 104.379C252.779 104.379 253.019 104.323 253.224 104.211C253.433 104.096 253.597 103.956 253.716 103.792C253.835 103.625 253.898 103.466 253.906 103.317L254.342 103.915C254.297 104.068 254.221 104.232 254.113 104.407C254.005 104.582 253.863 104.749 253.688 104.91C253.517 105.066 253.31 105.194 253.068 105.295C252.829 105.396 252.554 105.446 252.241 105.446C251.846 105.446 251.494 105.368 251.185 105.211C250.876 105.051 250.634 104.837 250.459 104.569C250.284 104.297 250.196 103.99 250.196 103.647C250.196 103.327 250.256 103.044 250.375 102.798C250.498 102.548 250.677 102.34 250.911 102.172C251.15 102.004 251.44 101.878 251.783 101.792C252.126 101.703 252.517 101.658 252.956 101.658H254.012Z" fill="#C4C4C4"/>
<path d="M257.912 100.58V105.334H256.565V99.2892H257.833L257.912 100.58ZM257.671 102.088L257.236 102.083C257.239 101.654 257.299 101.261 257.414 100.904C257.533 100.546 257.697 100.239 257.906 99.982C258.118 99.725 258.371 99.5276 258.666 99.3898C258.96 99.2483 259.288 99.1775 259.649 99.1775C259.939 99.1775 260.202 99.2185 260.437 99.3004C260.675 99.3786 260.878 99.5071 261.046 99.6859C261.217 99.8647 261.347 100.097 261.437 100.384C261.526 100.667 261.571 101.016 261.571 101.429V105.334H260.219V101.423C260.219 101.133 260.176 100.904 260.09 100.736C260.008 100.565 259.887 100.444 259.727 100.373C259.571 100.299 259.375 100.261 259.141 100.261C258.91 100.261 258.703 100.31 258.52 100.407C258.338 100.503 258.183 100.636 258.057 100.803C257.934 100.971 257.839 101.165 257.772 101.384C257.705 101.604 257.671 101.839 257.671 102.088Z" fill="#C4C4C4"/>
<path d="M265.716 99.2892V100.273H262.308V99.2892H265.716ZM263.292 97.8088H264.638V103.664C264.638 103.85 264.664 103.993 264.716 104.094C264.772 104.191 264.848 104.256 264.945 104.289C265.042 104.323 265.156 104.34 265.286 104.34C265.379 104.34 265.469 104.334 265.554 104.323C265.64 104.312 265.709 104.301 265.761 104.289L265.766 105.317C265.655 105.351 265.524 105.381 265.375 105.407C265.23 105.433 265.063 105.446 264.873 105.446C264.563 105.446 264.29 105.392 264.051 105.284C263.813 105.172 263.627 104.991 263.493 104.742C263.359 104.492 263.292 104.161 263.292 103.747V97.8088Z" fill="#C4C4C4"/>
<path d="M272.376 99.2892V100.273H268.968V99.2892H272.376ZM269.951 97.8088H271.297V103.664C271.297 103.85 271.323 103.993 271.376 104.094C271.431 104.191 271.508 104.256 271.605 104.289C271.701 104.323 271.815 104.34 271.945 104.34C272.039 104.34 272.128 104.334 272.214 104.323C272.299 104.312 272.368 104.301 272.42 104.289L272.426 105.317C272.314 105.351 272.184 105.381 272.035 105.407C271.89 105.433 271.722 105.446 271.532 105.446C271.223 105.446 270.949 105.392 270.711 105.284C270.472 105.172 270.286 104.991 270.152 104.742C270.018 104.492 269.951 104.161 269.951 103.747V97.8088Z" fill="#C4C4C4"/>
<path d="M273.024 102.379V102.25C273.024 101.814 273.087 101.41 273.214 101.038C273.34 100.662 273.523 100.336 273.761 100.06C274.003 99.7809 274.297 99.5649 274.644 99.4122C274.994 99.2557 275.389 99.1775 275.828 99.1775C276.271 99.1775 276.666 99.2557 277.013 99.4122C277.363 99.5649 277.659 99.7809 277.901 100.06C278.143 100.336 278.327 100.662 278.454 101.038C278.581 101.41 278.644 101.814 278.644 102.25V102.379C278.644 102.814 278.581 103.219 278.454 103.591C278.327 103.963 278.143 104.289 277.901 104.569C277.659 104.844 277.365 105.06 277.018 105.217C276.672 105.369 276.279 105.446 275.839 105.446C275.396 105.446 274.999 105.369 274.649 105.217C274.303 105.06 274.009 104.844 273.767 104.569C273.525 104.289 273.34 103.963 273.214 103.591C273.087 103.219 273.024 102.814 273.024 102.379ZM274.37 102.25V102.379C274.37 102.651 274.398 102.908 274.454 103.15C274.51 103.392 274.597 103.604 274.716 103.787C274.836 103.969 274.988 104.112 275.175 104.217C275.361 104.321 275.582 104.373 275.839 104.373C276.089 104.373 276.305 104.321 276.487 104.217C276.674 104.112 276.826 103.969 276.946 103.787C277.065 103.604 277.152 103.392 277.208 103.15C277.268 102.908 277.298 102.651 277.298 102.379V102.25C277.298 101.982 277.268 101.729 277.208 101.49C277.152 101.248 277.063 101.034 276.94 100.848C276.821 100.662 276.668 100.516 276.482 100.412C276.299 100.304 276.081 100.25 275.828 100.25C275.575 100.25 275.355 100.304 275.169 100.412C274.986 100.516 274.836 100.662 274.716 100.848C274.597 101.034 274.51 101.248 274.454 101.49C274.398 101.729 274.37 101.982 274.37 102.25Z" fill="#C4C4C4"/>
<path d="M284.588 104.267L286.069 99.2892H287.465L285.365 105.334H284.493L284.588 104.267ZM283.454 99.2892L284.963 104.289L285.035 105.334H284.164L282.052 99.2892H283.454Z" fill="#C4C4C4"/>
<path d="M291.616 104.122V101.239C291.616 101.023 291.577 100.837 291.499 100.68C291.421 100.524 291.302 100.403 291.141 100.317C290.985 100.232 290.788 100.189 290.549 100.189C290.33 100.189 290.14 100.226 289.979 100.3C289.819 100.375 289.694 100.475 289.605 100.602C289.516 100.729 289.471 100.872 289.471 101.032H288.13C288.13 100.794 288.188 100.563 288.303 100.34C288.419 100.116 288.586 99.9168 288.806 99.7418C289.026 99.5667 289.289 99.4289 289.594 99.3284C289.899 99.2278 290.242 99.1775 290.622 99.1775C291.076 99.1775 291.479 99.2539 291.829 99.4066C292.182 99.5593 292.46 99.7902 292.661 100.099C292.866 100.405 292.968 100.788 292.968 101.25V103.937C292.968 104.213 292.987 104.461 293.024 104.68C293.065 104.896 293.123 105.085 293.197 105.245V105.334H291.817C291.754 105.189 291.704 105.004 291.667 104.781C291.633 104.554 291.616 104.334 291.616 104.122ZM291.812 101.658L291.823 102.49H290.857C290.607 102.49 290.387 102.515 290.197 102.563C290.007 102.608 289.849 102.675 289.722 102.764C289.596 102.854 289.501 102.962 289.437 103.088C289.374 103.215 289.343 103.358 289.343 103.518C289.343 103.679 289.38 103.826 289.454 103.96C289.529 104.09 289.637 104.193 289.778 104.267C289.924 104.342 290.099 104.379 290.303 104.379C290.579 104.379 290.819 104.323 291.024 104.211C291.233 104.096 291.397 103.956 291.516 103.792C291.635 103.625 291.698 103.466 291.706 103.317L292.141 103.915C292.097 104.068 292.02 104.232 291.912 104.407C291.804 104.582 291.663 104.749 291.488 104.91C291.317 105.066 291.11 105.194 290.868 105.295C290.629 105.396 290.354 105.446 290.041 105.446C289.646 105.446 289.294 105.368 288.985 105.211C288.676 105.051 288.434 104.837 288.259 104.569C288.084 104.297 287.996 103.99 287.996 103.647C287.996 103.327 288.056 103.044 288.175 102.798C288.298 102.548 288.477 102.34 288.711 102.172C288.95 102.004 289.24 101.878 289.583 101.792C289.925 101.703 290.316 101.658 290.756 101.658H291.812Z" fill="#C4C4C4"/>
<path d="M295.818 96.7529V105.334H294.466V96.7529H295.818Z" fill="#C4C4C4"/>
<path d="M298.734 99.2892V105.334H297.382V99.2892H298.734ZM297.292 97.7026C297.292 97.4978 297.359 97.3283 297.494 97.1942C297.631 97.0564 297.821 96.9875 298.063 96.9875C298.302 96.9875 298.49 97.0564 298.628 97.1942C298.765 97.3283 298.834 97.4978 298.834 97.7026C298.834 97.9037 298.765 98.0713 298.628 98.2054C298.49 98.3395 298.302 98.4065 298.063 98.4065C297.821 98.4065 297.631 98.3395 297.494 98.2054C297.359 98.0713 297.292 97.9037 297.292 97.7026Z" fill="#C4C4C4"/>
<path d="M303.896 104.083V96.7529H305.248V105.334H304.024L303.896 104.083ZM299.963 102.379V102.261C299.963 101.803 300.017 101.386 300.125 101.01C300.233 100.63 300.389 100.304 300.594 100.032C300.799 99.7567 301.049 99.5462 301.343 99.401C301.637 99.252 301.969 99.1775 302.337 99.1775C302.702 99.1775 303.023 99.2483 303.298 99.3898C303.574 99.5313 303.808 99.7343 304.002 99.9988C304.196 100.259 304.35 100.572 304.466 100.937C304.581 101.299 304.663 101.701 304.712 102.144V102.518C304.663 102.95 304.581 103.345 304.466 103.703C304.35 104.06 304.196 104.369 304.002 104.63C303.808 104.891 303.572 105.092 303.293 105.234C303.017 105.375 302.695 105.446 302.326 105.446C301.961 105.446 301.631 105.369 301.337 105.217C301.047 105.064 300.799 104.85 300.594 104.574C300.389 104.299 300.233 103.975 300.125 103.602C300.017 103.226 299.963 102.818 299.963 102.379ZM301.309 102.261V102.379C301.309 102.654 301.334 102.911 301.382 103.15C301.434 103.388 301.514 103.598 301.622 103.781C301.73 103.96 301.87 104.101 302.041 104.206C302.216 104.306 302.425 104.356 302.667 104.356C302.972 104.356 303.224 104.289 303.421 104.155C303.619 104.021 303.773 103.841 303.885 103.613C304 103.382 304.078 103.125 304.119 102.842V101.831C304.097 101.611 304.051 101.407 303.98 101.217C303.913 101.027 303.821 100.861 303.706 100.719C303.591 100.574 303.447 100.462 303.276 100.384C303.108 100.302 302.909 100.261 302.678 100.261C302.432 100.261 302.224 100.313 302.052 100.418C301.881 100.522 301.739 100.665 301.628 100.848C301.52 101.03 301.44 101.243 301.388 101.485C301.335 101.727 301.309 101.986 301.309 102.261Z" fill="#C4C4C4"/>
<path d="M310.064 104.122V101.239C310.064 101.023 310.025 100.837 309.946 100.68C309.868 100.524 309.749 100.403 309.589 100.317C309.432 100.232 309.235 100.189 308.997 100.189C308.777 100.189 308.587 100.226 308.427 100.3C308.267 100.375 308.142 100.475 308.053 100.602C307.963 100.729 307.918 100.872 307.918 101.032H306.578C306.578 100.794 306.635 100.563 306.751 100.34C306.866 100.116 307.034 99.9168 307.254 99.7418C307.473 99.5667 307.736 99.4289 308.041 99.3284C308.347 99.2278 308.689 99.1775 309.069 99.1775C309.524 99.1775 309.926 99.2539 310.276 99.4066C310.63 99.5593 310.907 99.7902 311.108 100.099C311.313 100.405 311.416 100.788 311.416 101.25V103.937C311.416 104.213 311.434 104.461 311.472 104.68C311.513 104.896 311.57 105.085 311.645 105.245V105.334H310.265C310.202 105.189 310.151 105.004 310.114 104.781C310.08 104.554 310.064 104.334 310.064 104.122ZM310.259 101.658L310.27 102.49H309.304C309.054 102.49 308.835 102.515 308.645 102.563C308.455 102.608 308.296 102.675 308.17 102.764C308.043 102.854 307.948 102.962 307.885 103.088C307.822 103.215 307.79 103.358 307.79 103.518C307.79 103.679 307.827 103.826 307.902 103.96C307.976 104.09 308.084 104.193 308.226 104.267C308.371 104.342 308.546 104.379 308.751 104.379C309.026 104.379 309.267 104.323 309.472 104.211C309.68 104.096 309.844 103.956 309.963 103.792C310.082 103.625 310.146 103.466 310.153 103.317L310.589 103.915C310.544 104.068 310.468 104.232 310.36 104.407C310.252 104.582 310.11 104.749 309.935 104.91C309.764 105.066 309.557 105.194 309.315 105.295C309.077 105.396 308.801 105.446 308.488 105.446C308.093 105.446 307.742 105.368 307.432 105.211C307.123 105.051 306.881 104.837 306.706 104.569C306.531 104.297 306.444 103.99 306.444 103.647C306.444 103.327 306.503 103.044 306.622 102.798C306.745 102.548 306.924 102.34 307.159 102.172C307.397 102.004 307.688 101.878 308.03 101.792C308.373 101.703 308.764 101.658 309.203 101.658H310.259Z" fill="#C4C4C4"/>
<path d="M315.595 99.2892V100.273H312.187V99.2892H315.595ZM313.17 97.8088H314.516V103.664C314.516 103.85 314.542 103.993 314.595 104.094C314.65 104.191 314.727 104.256 314.824 104.289C314.92 104.323 315.034 104.34 315.164 104.34C315.258 104.34 315.347 104.334 315.433 104.323C315.518 104.312 315.587 104.301 315.639 104.289L315.645 105.317C315.533 105.351 315.403 105.381 315.254 105.407C315.109 105.433 314.941 105.446 314.751 105.446C314.442 105.446 314.168 105.392 313.93 105.284C313.691 105.172 313.505 104.991 313.371 104.742C313.237 104.492 313.17 104.161 313.17 103.747V97.8088Z" fill="#C4C4C4"/>
<path d="M319.299 105.446C318.852 105.446 318.448 105.373 318.086 105.228C317.729 105.079 317.423 104.872 317.17 104.608C316.921 104.343 316.729 104.032 316.595 103.675C316.461 103.317 316.394 102.932 316.394 102.518V102.295C316.394 101.822 316.462 101.394 316.6 101.01C316.738 100.626 316.93 100.299 317.176 100.027C317.421 99.7511 317.712 99.5406 318.047 99.3954C318.382 99.2501 318.746 99.1775 319.137 99.1775C319.569 99.1775 319.947 99.2501 320.271 99.3954C320.595 99.5406 320.863 99.7455 321.075 100.01C321.291 100.271 321.451 100.582 321.556 100.943C321.664 101.304 321.718 101.703 321.718 102.138V102.714H317.047V101.747H320.388V101.641C320.381 101.399 320.332 101.172 320.243 100.96C320.157 100.747 320.025 100.576 319.846 100.446C319.667 100.315 319.429 100.25 319.131 100.25C318.908 100.25 318.708 100.299 318.533 100.395C318.362 100.489 318.219 100.624 318.103 100.803C317.988 100.982 317.898 101.198 317.835 101.451C317.775 101.701 317.746 101.982 317.746 102.295V102.518C317.746 102.783 317.781 103.029 317.852 103.256C317.926 103.479 318.034 103.675 318.176 103.842C318.317 104.01 318.489 104.142 318.69 104.239C318.891 104.332 319.12 104.379 319.377 104.379C319.701 104.379 319.99 104.314 320.243 104.183C320.496 104.053 320.716 103.869 320.902 103.63L321.612 104.317C321.481 104.507 321.312 104.69 321.103 104.865C320.895 105.036 320.639 105.176 320.338 105.284C320.04 105.392 319.693 105.446 319.299 105.446Z" fill="#C4C4C4"/>
<path d="M325.288 102.937H324.042C324.045 102.591 324.075 102.3 324.131 102.066C324.187 101.827 324.28 101.611 324.411 101.418C324.545 101.224 324.721 101.019 324.941 100.803C325.113 100.639 325.267 100.485 325.405 100.34C325.543 100.191 325.653 100.034 325.735 99.8703C325.816 99.7027 325.857 99.5109 325.857 99.2948C325.857 99.0602 325.818 98.8609 325.74 98.6971C325.662 98.5332 325.546 98.4084 325.394 98.3227C325.245 98.2371 325.059 98.1942 324.835 98.1942C324.649 98.1942 324.474 98.2315 324.31 98.306C324.146 98.3767 324.014 98.4885 323.913 98.6412C323.813 98.7902 323.759 98.9876 323.751 99.2334H322.405C322.412 98.7641 322.524 98.3693 322.74 98.049C322.956 97.7287 323.247 97.4885 323.612 97.3283C323.977 97.1681 324.384 97.0881 324.835 97.0881C325.334 97.0881 325.761 97.1737 326.114 97.3451C326.468 97.5127 326.738 97.7585 326.925 98.0825C327.114 98.4028 327.209 98.7902 327.209 99.2446C327.209 99.5723 327.144 99.8703 327.014 100.138C326.884 100.403 326.714 100.651 326.506 100.881C326.297 101.109 326.072 101.336 325.83 101.563C325.621 101.753 325.479 101.96 325.405 102.183C325.33 102.403 325.291 102.654 325.288 102.937ZM323.93 104.68C323.93 104.479 323.999 104.31 324.137 104.172C324.275 104.031 324.463 103.96 324.701 103.96C324.939 103.96 325.127 104.031 325.265 104.172C325.403 104.31 325.472 104.479 325.472 104.68C325.472 104.882 325.403 105.053 325.265 105.194C325.127 105.332 324.939 105.401 324.701 105.401C324.463 105.401 324.275 105.332 324.137 105.194C323.999 105.053 323.93 104.882 323.93 104.68Z" fill="#C4C4C4"/>
<path d="M179.477 139.852C179.477 139.685 179.451 139.536 179.399 139.405C179.35 139.275 179.263 139.156 179.136 139.048C179.01 138.94 178.831 138.836 178.6 138.735C178.373 138.631 178.082 138.525 177.728 138.417C177.341 138.297 176.983 138.165 176.656 138.02C176.332 137.871 176.049 137.7 175.807 137.506C175.564 137.309 175.376 137.083 175.242 136.83C175.108 136.573 175.041 136.277 175.041 135.942C175.041 135.61 175.11 135.308 175.248 135.037C175.389 134.765 175.589 134.53 175.846 134.333C176.106 134.132 176.414 133.977 176.767 133.869C177.121 133.757 177.512 133.701 177.941 133.701C178.544 133.701 179.064 133.813 179.499 134.037C179.939 134.26 180.276 134.56 180.511 134.936C180.749 135.312 180.868 135.727 180.868 136.182H179.477C179.477 135.914 179.419 135.677 179.304 135.472C179.192 135.264 179.021 135.1 178.79 134.981C178.563 134.862 178.274 134.802 177.924 134.802C177.592 134.802 177.317 134.852 177.097 134.953C176.877 135.053 176.713 135.189 176.605 135.361C176.497 135.532 176.443 135.726 176.443 135.942C176.443 136.094 176.479 136.234 176.55 136.361C176.62 136.484 176.728 136.599 176.874 136.707C177.019 136.811 177.201 136.91 177.421 137.003C177.641 137.096 177.9 137.186 178.198 137.271C178.648 137.405 179.041 137.554 179.376 137.718C179.712 137.878 179.991 138.061 180.214 138.266C180.438 138.471 180.606 138.703 180.717 138.964C180.829 139.221 180.885 139.513 180.885 139.841C180.885 140.184 180.816 140.493 180.678 140.769C180.54 141.04 180.343 141.273 180.086 141.467C179.833 141.657 179.527 141.804 179.17 141.908C178.816 142.009 178.421 142.059 177.985 142.059C177.594 142.059 177.209 142.007 176.829 141.903C176.453 141.798 176.11 141.64 175.801 141.428C175.492 141.212 175.246 140.944 175.063 140.623C174.881 140.299 174.79 139.921 174.79 139.489H176.192C176.192 139.754 176.237 139.979 176.326 140.165C176.419 140.351 176.548 140.504 176.712 140.623C176.875 140.739 177.065 140.824 177.281 140.88C177.501 140.936 177.736 140.964 177.985 140.964C178.313 140.964 178.587 140.918 178.807 140.824C179.03 140.731 179.198 140.601 179.309 140.433C179.421 140.266 179.477 140.072 179.477 139.852Z" fill="#5C009C"/>
<path d="M184.656 142.059C184.209 142.059 183.805 141.986 183.444 141.841C183.086 141.692 182.781 141.486 182.527 141.221C182.278 140.957 182.086 140.646 181.952 140.288C181.818 139.931 181.751 139.545 181.751 139.132V138.908C181.751 138.435 181.82 138.007 181.958 137.623C182.095 137.24 182.287 136.912 182.533 136.64C182.779 136.364 183.069 136.154 183.404 136.009C183.74 135.863 184.103 135.791 184.494 135.791C184.926 135.791 185.304 135.863 185.628 136.009C185.952 136.154 186.22 136.359 186.432 136.623C186.649 136.884 186.809 137.195 186.913 137.556C187.021 137.917 187.075 138.316 187.075 138.752V139.327H182.404V138.361H185.745V138.255C185.738 138.012 185.689 137.785 185.6 137.573C185.514 137.361 185.382 137.189 185.203 137.059C185.025 136.929 184.786 136.863 184.488 136.863C184.265 136.863 184.066 136.912 183.891 137.009C183.719 137.102 183.576 137.238 183.46 137.417C183.345 137.595 183.255 137.811 183.192 138.065C183.133 138.314 183.103 138.595 183.103 138.908V139.132C183.103 139.396 183.138 139.642 183.209 139.869C183.283 140.093 183.391 140.288 183.533 140.456C183.675 140.623 183.846 140.756 184.047 140.852C184.248 140.945 184.477 140.992 184.734 140.992C185.058 140.992 185.347 140.927 185.6 140.797C185.853 140.666 186.073 140.482 186.259 140.243L186.969 140.931C186.838 141.121 186.669 141.303 186.46 141.478C186.252 141.649 185.997 141.789 185.695 141.897C185.397 142.005 185.051 142.059 184.656 142.059Z" fill="#5C009C"/>
<path d="M189.567 133.366V141.947H188.215V133.366H189.567Z" fill="#5C009C"/>
<path d="M193.706 142.059C193.259 142.059 192.855 141.986 192.494 141.841C192.137 141.692 191.831 141.486 191.578 141.221C191.328 140.957 191.137 140.646 191.002 140.288C190.868 139.931 190.801 139.545 190.801 139.132V138.908C190.801 138.435 190.87 138.007 191.008 137.623C191.146 137.24 191.338 136.912 191.583 136.64C191.829 136.364 192.12 136.154 192.455 136.009C192.79 135.863 193.153 135.791 193.544 135.791C193.976 135.791 194.354 135.863 194.679 136.009C195.003 136.154 195.271 136.359 195.483 136.623C195.699 136.884 195.859 137.195 195.963 137.556C196.071 137.917 196.125 138.316 196.125 138.752V139.327H191.455V138.361H194.796V138.255C194.788 138.012 194.74 137.785 194.651 137.573C194.565 137.361 194.433 137.189 194.254 137.059C194.075 136.929 193.837 136.863 193.539 136.863C193.315 136.863 193.116 136.912 192.941 137.009C192.77 137.102 192.626 137.238 192.511 137.417C192.395 137.595 192.306 137.811 192.243 138.065C192.183 138.314 192.153 138.595 192.153 138.908V139.132C192.153 139.396 192.189 139.642 192.259 139.869C192.334 140.093 192.442 140.288 192.583 140.456C192.725 140.623 192.896 140.756 193.097 140.852C193.299 140.945 193.528 140.992 193.785 140.992C194.109 140.992 194.397 140.927 194.651 140.797C194.904 140.666 195.124 140.482 195.31 140.243L196.019 140.931C195.889 141.121 195.72 141.303 195.511 141.478C195.302 141.649 195.047 141.789 194.746 141.897C194.448 142.005 194.101 142.059 193.706 142.059Z" fill="#5C009C"/>
<path d="M199.645 140.986C199.865 140.986 200.062 140.944 200.237 140.858C200.416 140.769 200.559 140.646 200.668 140.489C200.779 140.333 200.841 140.152 200.852 139.947H202.12C202.113 140.338 201.997 140.694 201.774 141.014C201.55 141.335 201.254 141.59 200.885 141.78C200.517 141.966 200.109 142.059 199.662 142.059C199.2 142.059 198.798 141.981 198.455 141.824C198.113 141.664 197.828 141.445 197.6 141.165C197.373 140.886 197.202 140.564 197.086 140.199C196.975 139.834 196.919 139.443 196.919 139.026V138.83C196.919 138.413 196.975 138.022 197.086 137.657C197.202 137.288 197.373 136.964 197.6 136.685C197.828 136.405 198.113 136.187 198.455 136.031C198.798 135.871 199.198 135.791 199.656 135.791C200.14 135.791 200.565 135.888 200.93 136.081C201.295 136.271 201.582 136.538 201.79 136.88C202.003 137.219 202.113 137.614 202.12 138.065H200.852C200.841 137.841 200.785 137.64 200.684 137.461C200.587 137.279 200.45 137.133 200.271 137.025C200.096 136.917 199.885 136.863 199.64 136.863C199.368 136.863 199.142 136.919 198.964 137.031C198.785 137.139 198.645 137.288 198.545 137.478C198.444 137.664 198.371 137.875 198.327 138.109C198.286 138.34 198.265 138.58 198.265 138.83V139.026C198.265 139.275 198.286 139.517 198.327 139.752C198.368 139.986 198.438 140.197 198.539 140.383C198.643 140.566 198.785 140.713 198.964 140.824C199.142 140.932 199.37 140.986 199.645 140.986Z" fill="#5C009C"/>
<path d="M205.925 135.903V136.886H202.517V135.903H205.925ZM203.5 134.422H204.846V140.277C204.846 140.463 204.872 140.607 204.925 140.707C204.98 140.804 205.057 140.869 205.154 140.903C205.251 140.936 205.364 140.953 205.494 140.953C205.588 140.953 205.677 140.947 205.763 140.936C205.848 140.925 205.917 140.914 205.969 140.903L205.975 141.931C205.863 141.964 205.733 141.994 205.584 142.02C205.439 142.046 205.271 142.059 205.081 142.059C204.772 142.059 204.498 142.005 204.26 141.897C204.021 141.785 203.835 141.605 203.701 141.355C203.567 141.106 203.5 140.774 203.5 140.361V134.422Z" fill="#5C009C"/>
<path d="M214.752 139.299H216.148C216.104 139.832 215.955 140.307 215.701 140.724C215.448 141.137 215.092 141.463 214.634 141.702C214.176 141.94 213.619 142.059 212.964 142.059C212.461 142.059 212.009 141.97 211.606 141.791C211.204 141.608 210.86 141.351 210.573 141.02C210.286 140.685 210.066 140.281 209.914 139.808C209.765 139.335 209.69 138.806 209.69 138.221V137.545C209.69 136.96 209.766 136.431 209.919 135.958C210.076 135.485 210.299 135.081 210.59 134.746C210.88 134.407 211.228 134.148 211.634 133.97C212.044 133.791 212.504 133.701 213.014 133.701C213.662 133.701 214.21 133.821 214.657 134.059C215.104 134.297 215.45 134.627 215.696 135.048C215.945 135.469 216.098 135.951 216.154 136.495H214.757C214.72 136.145 214.638 135.845 214.511 135.595C214.389 135.346 214.206 135.156 213.964 135.025C213.722 134.891 213.405 134.824 213.014 134.824C212.694 134.824 212.415 134.884 212.176 135.003C211.938 135.122 211.739 135.297 211.578 135.528C211.418 135.759 211.297 136.044 211.215 136.383C211.137 136.718 211.098 137.102 211.098 137.534V138.221C211.098 138.631 211.133 139.003 211.204 139.338C211.279 139.67 211.39 139.955 211.539 140.193C211.692 140.432 211.886 140.616 212.12 140.746C212.355 140.877 212.636 140.942 212.964 140.942C213.362 140.942 213.685 140.878 213.93 140.752C214.18 140.625 214.368 140.441 214.495 140.199C214.625 139.953 214.711 139.653 214.752 139.299Z" fill="#5C009C"/>
<path d="M220.696 140.735V137.852C220.696 137.636 220.657 137.45 220.579 137.294C220.5 137.137 220.381 137.016 220.221 136.93C220.065 136.845 219.867 136.802 219.629 136.802C219.409 136.802 219.219 136.839 219.059 136.914C218.899 136.988 218.774 137.089 218.685 137.215C218.595 137.342 218.551 137.485 218.551 137.646H217.21C217.21 137.407 217.268 137.176 217.383 136.953C217.499 136.729 217.666 136.53 217.886 136.355C218.106 136.18 218.368 136.042 218.674 135.942C218.979 135.841 219.322 135.791 219.702 135.791C220.156 135.791 220.558 135.867 220.908 136.02C221.262 136.173 221.54 136.403 221.741 136.713C221.946 137.018 222.048 137.402 222.048 137.863V140.551C222.048 140.826 222.067 141.074 222.104 141.294C222.145 141.51 222.203 141.698 222.277 141.858V141.947H220.897C220.834 141.802 220.784 141.618 220.746 141.394C220.713 141.167 220.696 140.947 220.696 140.735ZM220.892 138.271L220.903 139.104H219.936C219.687 139.104 219.467 139.128 219.277 139.176C219.087 139.221 218.929 139.288 218.802 139.377C218.675 139.467 218.58 139.575 218.517 139.702C218.454 139.828 218.422 139.972 218.422 140.132C218.422 140.292 218.459 140.439 218.534 140.573C218.608 140.703 218.716 140.806 218.858 140.88C219.003 140.955 219.178 140.992 219.383 140.992C219.659 140.992 219.899 140.936 220.104 140.824C220.312 140.709 220.476 140.569 220.595 140.405C220.715 140.238 220.778 140.08 220.785 139.931L221.221 140.528C221.176 140.681 221.1 140.845 220.992 141.02C220.884 141.195 220.743 141.363 220.567 141.523C220.396 141.679 220.189 141.808 219.947 141.908C219.709 142.009 219.433 142.059 219.121 142.059C218.726 142.059 218.374 141.981 218.065 141.824C217.755 141.664 217.513 141.45 217.338 141.182C217.163 140.91 217.076 140.603 217.076 140.26C217.076 139.94 217.135 139.657 217.255 139.411C217.377 139.161 217.556 138.953 217.791 138.785C218.029 138.618 218.32 138.491 218.662 138.405C219.005 138.316 219.396 138.271 219.836 138.271H220.892Z" fill="#5C009C"/>
<path d="M226.227 135.903V136.886H222.819V135.903H226.227ZM223.802 134.422H225.149V140.277C225.149 140.463 225.175 140.607 225.227 140.707C225.283 140.804 225.359 140.869 225.456 140.903C225.553 140.936 225.666 140.953 225.797 140.953C225.89 140.953 225.979 140.947 226.065 140.936C226.151 140.925 226.219 140.914 226.272 140.903L226.277 141.931C226.165 141.964 226.035 141.994 225.886 142.02C225.741 142.046 225.573 142.059 225.383 142.059C225.074 142.059 224.8 142.005 224.562 141.897C224.324 141.785 224.137 141.605 224.003 141.355C223.869 141.106 223.802 140.774 223.802 140.361V134.422Z" fill="#5C009C"/>
<path d="M229.931 142.059C229.484 142.059 229.08 141.986 228.719 141.841C228.361 141.692 228.056 141.486 227.802 141.221C227.553 140.957 227.361 140.646 227.227 140.288C227.093 139.931 227.026 139.545 227.026 139.132V138.908C227.026 138.435 227.095 138.007 227.232 137.623C227.37 137.24 227.562 136.912 227.808 136.64C228.054 136.364 228.344 136.154 228.679 136.009C229.015 135.863 229.378 135.791 229.769 135.791C230.201 135.791 230.579 135.863 230.903 136.009C231.227 136.154 231.495 136.359 231.707 136.623C231.923 136.884 232.084 137.195 232.188 137.556C232.296 137.917 232.35 138.316 232.35 138.752V139.327H227.679V138.361H231.02V138.255C231.013 138.012 230.964 137.785 230.875 137.573C230.789 137.361 230.657 137.189 230.478 137.059C230.3 136.929 230.061 136.863 229.763 136.863C229.54 136.863 229.341 136.912 229.165 137.009C228.994 137.102 228.851 137.238 228.735 137.417C228.62 137.595 228.53 137.811 228.467 138.065C228.408 138.314 228.378 138.595 228.378 138.908V139.132C228.378 139.396 228.413 139.642 228.484 139.869C228.558 140.093 228.666 140.288 228.808 140.456C228.949 140.623 229.121 140.756 229.322 140.852C229.523 140.945 229.752 140.992 230.009 140.992C230.333 140.992 230.622 140.927 230.875 140.797C231.128 140.666 231.348 140.482 231.534 140.243L232.244 140.931C232.113 141.121 231.944 141.303 231.735 141.478C231.527 141.649 231.272 141.789 230.97 141.897C230.672 142.005 230.326 142.059 229.931 142.059Z" fill="#5C009C"/>
<path d="M237.272 135.903H238.495V141.78C238.495 142.324 238.38 142.785 238.149 143.165C237.918 143.545 237.596 143.834 237.182 144.031C236.769 144.232 236.29 144.333 235.747 144.333C235.516 144.333 235.259 144.299 234.976 144.232C234.696 144.165 234.424 144.057 234.16 143.908C233.899 143.763 233.681 143.571 233.506 143.333L234.138 142.54C234.354 142.797 234.592 142.985 234.853 143.104C235.113 143.223 235.387 143.283 235.674 143.283C235.983 143.283 236.246 143.225 236.462 143.109C236.682 142.998 236.851 142.832 236.97 142.612C237.089 142.392 237.149 142.124 237.149 141.808V137.271L237.272 135.903ZM233.166 138.992V138.875C233.166 138.417 233.221 137.999 233.333 137.623C233.445 137.243 233.605 136.917 233.814 136.646C234.022 136.37 234.275 136.16 234.573 136.014C234.871 135.865 235.208 135.791 235.585 135.791C235.976 135.791 236.309 135.862 236.585 136.003C236.864 136.145 237.097 136.348 237.283 136.612C237.469 136.873 237.615 137.186 237.719 137.551C237.827 137.912 237.907 138.314 237.959 138.757V139.132C237.911 139.564 237.829 139.958 237.713 140.316C237.598 140.674 237.445 140.983 237.255 141.243C237.065 141.504 236.83 141.705 236.551 141.847C236.276 141.988 235.95 142.059 235.573 142.059C235.205 142.059 234.871 141.983 234.573 141.83C234.279 141.677 234.026 141.463 233.814 141.188C233.605 140.912 233.445 140.588 233.333 140.215C233.221 139.839 233.166 139.431 233.166 138.992ZM234.512 138.875V138.992C234.512 139.268 234.538 139.525 234.59 139.763C234.646 140.001 234.73 140.212 234.842 140.394C234.957 140.573 235.102 140.715 235.277 140.819C235.456 140.919 235.667 140.97 235.909 140.97C236.225 140.97 236.484 140.903 236.685 140.769C236.89 140.634 237.047 140.454 237.155 140.227C237.266 139.996 237.344 139.739 237.389 139.456V138.444C237.367 138.225 237.32 138.02 237.249 137.83C237.182 137.64 237.091 137.474 236.976 137.333C236.86 137.187 236.715 137.076 236.54 136.998C236.365 136.916 236.158 136.875 235.92 136.875C235.678 136.875 235.467 136.927 235.289 137.031C235.11 137.135 234.963 137.279 234.847 137.461C234.735 137.644 234.652 137.856 234.596 138.098C234.54 138.34 234.512 138.599 234.512 138.875Z" fill="#5C009C"/>
<path d="M239.635 138.992V138.863C239.635 138.428 239.698 138.024 239.825 137.651C239.952 137.275 240.134 136.949 240.372 136.673C240.615 136.394 240.909 136.178 241.255 136.025C241.605 135.869 242 135.791 242.44 135.791C242.883 135.791 243.278 135.869 243.624 136.025C243.974 136.178 244.27 136.394 244.512 136.673C244.754 136.949 244.939 137.275 245.065 137.651C245.192 138.024 245.255 138.428 245.255 138.863V138.992C245.255 139.428 245.192 139.832 245.065 140.204C244.939 140.577 244.754 140.903 244.512 141.182C244.27 141.458 243.976 141.674 243.63 141.83C243.283 141.983 242.89 142.059 242.451 142.059C242.008 142.059 241.611 141.983 241.261 141.83C240.914 141.674 240.62 141.458 240.378 141.182C240.136 140.903 239.952 140.577 239.825 140.204C239.698 139.832 239.635 139.428 239.635 138.992ZM240.981 138.863V138.992C240.981 139.264 241.009 139.521 241.065 139.763C241.121 140.005 241.209 140.217 241.328 140.4C241.447 140.582 241.6 140.726 241.786 140.83C241.972 140.934 242.194 140.986 242.451 140.986C242.7 140.986 242.916 140.934 243.099 140.83C243.285 140.726 243.438 140.582 243.557 140.4C243.676 140.217 243.764 140.005 243.82 139.763C243.879 139.521 243.909 139.264 243.909 138.992V138.863C243.909 138.595 243.879 138.342 243.82 138.104C243.764 137.862 243.674 137.647 243.551 137.461C243.432 137.275 243.279 137.13 243.093 137.025C242.911 136.917 242.693 136.863 242.44 136.863C242.186 136.863 241.967 136.917 241.78 137.025C241.598 137.13 241.447 137.275 241.328 137.461C241.209 137.647 241.121 137.862 241.065 138.104C241.009 138.342 240.981 138.595 240.981 138.863Z" fill="#5C009C"/>
<path d="M247.736 137.053V141.947H246.389V135.903H247.674L247.736 137.053ZM249.585 135.863L249.574 137.115C249.492 137.1 249.403 137.089 249.306 137.081C249.213 137.074 249.119 137.07 249.026 137.07C248.795 137.07 248.592 137.104 248.417 137.171C248.242 137.234 248.095 137.327 247.976 137.45C247.861 137.569 247.771 137.714 247.708 137.886C247.645 138.057 247.607 138.249 247.596 138.461L247.289 138.484C247.289 138.104 247.326 137.752 247.401 137.428C247.475 137.104 247.587 136.819 247.736 136.573C247.889 136.327 248.078 136.135 248.306 135.997C248.537 135.86 248.803 135.791 249.105 135.791C249.187 135.791 249.274 135.798 249.367 135.813C249.464 135.828 249.537 135.845 249.585 135.863Z" fill="#5C009C"/>
<path d="M252.283 141.288L253.926 135.903H255.367L252.943 142.869C252.887 143.018 252.814 143.18 252.725 143.355C252.635 143.53 252.518 143.696 252.373 143.852C252.231 144.013 252.054 144.141 251.842 144.238C251.63 144.339 251.373 144.389 251.071 144.389C250.952 144.389 250.836 144.378 250.725 144.355C250.617 144.337 250.514 144.316 250.417 144.294L250.412 143.266C250.449 143.27 250.494 143.273 250.546 143.277C250.602 143.281 250.647 143.283 250.68 143.283C250.903 143.283 251.09 143.255 251.239 143.199C251.388 143.147 251.509 143.061 251.602 142.942C251.699 142.823 251.781 142.662 251.848 142.461L252.283 141.288ZM251.356 135.903L252.792 140.428L253.032 141.847L252.099 142.087L249.903 135.903H251.356Z" fill="#5C009C"/>
<path d="M146.911 101.616C146.911 108.724 141.148 114.487 134.039 114.487C126.93 114.487 121.167 108.724 121.167 101.616C121.167 94.5066 126.93 88.7437 134.039 88.7437C141.148 88.7437 146.911 94.5066 146.911 101.616Z" fill="#C4C4C4"/>
<path d="M260.612 136.513L264.188 140.088L267.763 136.513H260.612Z" fill="#5C009C"/>
</g>
<defs>
<filter id="filter0_d_25_228" x="0" y="0" width="700" height="318.993" filterUnits="userSpaceOnUse" color-interpolation-filters="sRGB">
<feFlood flood-opacity="0" result="BackgroundImageFix"/>
<feColorMatrix in="SourceAlpha" type="matrix" values="0 0 0 0 0 0 0 0 0 0 0 0 0 0 0 0 0 0 127 0" result="hardAlpha"/>
<feOffset dy="37"/>
<feGaussianBlur stdDeviation="50"/>
<feComposite in2="hardAlpha" operator="out"/>
<feColorMatrix type="matrix" values="0 0 0 0 0 0 0 0 0 0 0 0 0 0 0 0 0 0 0.2 0"/>
<feBlend mode="normal" in2="BackgroundImageFix" result="effect1_dropShadow_25_228"/>
<feBlend mode="normal" in="SourceGraphic" in2="effect1_dropShadow_25_228" result="shape"/>
</filter>
<linearGradient id="paint0_linear_25_228" x1="213.169" y1="-71.4623" x2="527.349" y2="253.459" gradientUnits="userSpaceOnUse">
<stop stop-color="#000AFF"/>
<stop offset="1" stop-color="#FF007A"/>
</linearGradient>
</defs>
</svg>
